{
  "accessors": [
    {
      "bufferView": 2,
      "componentType": 5126,
      "count": 2308,
      "max": [
        23.98542594909668,
        156.34642028808594,
        10.425466537475586
      ],
      "min": [
        -23.747516632080078,
        107.1679458618164,
        -15.846287727355957
      ],
      "type": "VEC3"
    },
    {
      "bufferView": 2,
      "byteOffset": 27696,
      "componentType": 5126,
      "count": 2308,
      "max": [
        0.9997418522834778,
        0.9843406081199646,
        0.9999502897262573
      ],
      "min": [
        -0.999305009841919,
        -0.8744360208511353,
        -0.9999932646751404
      ],
      "type": "VEC3"
    },
    {
      "bufferView": 3,
      "componentType": 5126,
      "count": 2308,
      "max": [
        0.9999963045120239,
        0.9542815685272217,
        0.999840497970581,
        1.0
      ],
      "min": [
        -0.9999604821205139,
        -0.9092125296592712,
        -0.9998875856399536,
        -1.0
      ],
      "type": "VEC4"
    },
    {
      "bufferView": 1,
      "componentType": 5126,
      "count": 2308,
      "max": [
        0.9785810112953186,
        0.8756229877471924
      ],
      "min": [
        0.025186000391840935,
        0.035666000097990036
      ],
      "type": "VEC2"
    },
    {
      "bufferView": 1,
      "byteOffset": 18464,
      "componentType": 5126,
      "count": 2308,
      "max": [
        0.9785810112953186,
        0.8756229877471924
      ],
      "min": [
        0.025186000391840935,
        0.035666000097990036
      ],
      "type": "VEC2"
    },
    {
      "bufferView": 0,
      "componentType": 5125,
      "count": 12441,
      "type": "SCALAR"
    },
    {
      "bufferView": 2,
      "byteOffset": 55392,
      "componentType": 5126,
      "count": 366,
      "max": [
        20.328536987304688,
        112.09687042236328,
        9.245241165161133
      ],
      "min": [
        -19.870025634765625,
        70.80823516845703,
        -16.910511016845703
      ],
      "type": "VEC3"
    },
    {
      "bufferView": 2,
      "byteOffset": 59784,
      "componentType": 5126,
      "count": 366,
      "max": [
        0.9963147640228271,
        0.3965388834476471,
        0.9997344613075256
      ],
      "min": [
        -0.9999579191207886,
        -0.3374371826648712,
        -0.9998992681503296
      ],
      "type": "VEC3"
    },
    {
      "bufferView": 3,
      "byteOffset": 36928,
      "componentType": 5126,
      "count": 366,
      "max": [
        0.9999986290931702,
        0.3095834255218506,
        0.9999653100967407,
        1.0
      ],
      "min": [
        -0.9999844431877136,
        -0.3158248960971832,
        -0.9965798854827881,
        1.0
      ],
      "type": "VEC4"
    },
    {
      "bufferView": 1,
      "byteOffset": 36928,
      "componentType": 5126,
      "count": 366,
      "max": [
        0.8160315752029419,
        0.9928414225578308
      ],
      "min": [
        0.011835727840662003,
        0.007315307855606079
      ],
      "type": "VEC2"
    },
    {
      "bufferView": 1,
      "byteOffset": 39856,
      "componentType": 5126,
      "count": 366,
      "max": [
        0.8160315752029419,
        0.9928414225578308
      ],
      "min": [
        0.011835727840662003,
        0.007315307855606079
      ],
      "type": "VEC2"
    },
    {
      "bufferView": 0,
      "byteOffset": 49764,
      "componentType": 5125,
      "count": 1872,
      "type": "SCALAR"
    }
  ],
  "asset": {
    "extras": {
      "author": "lizhiqiang (https://sketchfab.com/lizhiqiang89)",
      "license": "CC-BY-4.0 (http://creativecommons.org/licenses/by/4.0/)",
      "source": "https://sketchfab.com/3d-models/woman-mini-skirt-5498fc39dd594a8fbf365b8eb6f146e5",
      "title": "Woman Mini Skirt"
    },
    "generator": "Sketchfab-12.67.0",
    "version": "2.0"
  },
  "bufferViews": [
    {
      "buffer": 0,
      "byteLength": 57252,
      "name": "floatBufferViews",
      "target": 34963
    },
    {
      "buffer": 0,
      "byteLength": 42784,
      "byteOffset": 57252,
      "byteStride": 8,
      "name": "floatBufferViews",
      "target": 34962
    },
    {
      "buffer": 0,
      "byteLength": 64176,
      "byteOffset": 100036,
      "byteStride": 12,
      "name": "floatBufferViews",
      "target": 34962
    },
    {
      "buffer": 0,
      "byteLength": 42784,
      "byteOffset": 164212,
      "byteStride": 16,
      "name": "floatBufferViews",
      "target": 34962
    }
  ],
  "buffers": [
    {
      "byteLength": 206996,
      "uri": "scene.bin"
    }
  ],
  "images": [
    {
      "uri": "textures/M_Tshirt_women_baseColor.jpeg"
    },
    {
      "uri": "textures/M_Tshirt_women_normal.png"
    },
    {
      "uri": "textures/M_JeansMiniSkirt_baseColor.png"
    },
    {
      "uri": "textures/M_JeansMiniSkirt_normal.png"
    }
  ],
  "materials": [
    {
      "doubleSided": true,
      "name": "M_Tshirt_women",
      "normalTexture": {
        "index": 1
      },
      "pbrMetallicRoughness": {
        "baseColorTexture": {
          "index": 0
        },
        "metallicFactor": 0.0,
        "roughnessFactor": 0.9207483816249483
      }
    },
    {
      "doubleSided": true,
      "name": "M_JeansMiniSkirt",
      "normalTexture": {
        "index": 3
      },
      "pbrMetallicRoughness": {
        "baseColorTexture": {
          "index": 2
        },
        "metallicFactor": 0.0,
        "roughnessFactor": 0.9207483816249483
      }
    }
  ],
  "meshes": [
    {
      "name": "Tshirt_women_M_Tshirt_women_0",
      "primitives": [
        {
          "attributes": {
            "NORMAL": 1,
            "POSITION": 0,
            "TANGENT": 2,
            "TEXCOORD_0": 3,
            "TEXCOORD_1": 4
          },
          "indices": 5,
          "material": 0,
          "mode": 4
        }
      ]
    },
    {
      "name": "JeansMiniSkirt_M_JeansMiniSkirt_0",
      "primitives": [
        {
          "attributes": {
            "NORMAL": 7,
            "POSITION": 6,
            "TANGENT": 8,
            "TEXCOORD_0": 9,
            "TEXCOORD_1": 10
          },
          "indices": 11,
          "material": 1,
          "mode": 4
        }
      ]
    }
  ],
  "nodes": [
    {
      "children": [
        1
      ],
      "matrix": [
        1.0,
        0.0,
        0.0,
        0.0,
        0.0,
        2.220446049250313e-16,
        -1.0,
        0.0,
        0.0,
        1.0,
        2.220446049250313e-16,
        0.0,
        0.0,
        0.0,
        0.0,
        1.0
      ],
      "name": "Sketchfab_model"
    },
    {
      "children": [
        2
      ],
      "matrix": [
        1.0,
        0.0,
        0.0,
        0.0,
        0.0,
        0.0,
        1.0,
        0.0,
        0.0,
        -1.0,
        0.0,
        0.0,
        0.0,
        0.0,
        0.0,
        1.0
      ],
      "name": "0e7d630b16214450b605c75e77d3055a.fbx"
    },
    {
      "children": [
        3,
        5
      ],
      "name": "RootNode"
    },
    {
      "children": [
        4
      ],
      "name": "Tshirt_women"
    },
    {
      "mesh": 0,
      "name": "Tshirt_women_M_Tshirt_women_0"
    },
    {
      "children": [
        6
      ],
      "name": "JeansMiniSkirt"
    },
    {
      "mesh": 1,
      "name": "JeansMiniSkirt_M_JeansMiniSkirt_0"
    }
  ],
  "samplers": [
    {
      "magFilter": 9729,
      "minFilter": 9987,
      "wrapS": 10497,
      "wrapT": 10497
    }
  ],
  "scene": 0,
  "scenes": [
    {
      "name": "Sketchfab_Scene",
      "nodes": [
        0
      ]
    }
  ],
  "textures": [
    {
      "sampler": 0,
      "source": 0
    },
    {
      "sampler": 0,
      "source": 1
    },
    {
      "sampler": 0,
      "source": 2
    },
    {
      "sampler": 0,
      "source": 3
    }
  ]
}
