{
  "accessors": [
    {
      "bufferView": 2,
      "componentType": 5126,
      "count": 16,
      "max": [
        4.358442783355713,
        5.432560920715332,
        -35.41994094848633
      ],
      "min": [
        1.437803030014038,
        4.480494976043701,
        -38.265228271484375
      ],
      "type": "VEC3"
    },
    {
      "bufferView": 2,
      "byteOffset": 192,
      "componentType": 5126,
      "count": 16,
      "max": [
        0.43485015630722046,
        0.9011875987052917,
        -0.1042279452085495
      ],
      "min": [
        -0.42071080207824707,
        0.33481210470199585,
        -0.8359463214874268
      ],
      "type": "VEC3"
    },
    {
      "bufferView": 3,
      "componentType": 5126,
      "count": 16,
      "max": [
        -0.4175463318824768,
        -0.04388422891497612,
        -0.4661318361759186,
        1.0
      ],
      "min": [
        -0.8836262822151184,
        -0.3841727077960968,
        -0.8596580624580383,
        1.0
      ],
      "type": "VEC4"
    },
    {
      "bufferView": 1,
      "componentType": 5126,
      "count": 16,
      "max": [
        0.3624289929866791,
        0.9415209889411926
      ],
      "min": [
        0.17669999599456787,
        0.6096469759941101
      ],
      "type": "VEC2"
    },
    {
      "bufferView": 0,
      "componentType": 5125,
      "count": 24,
      "type": "SCALAR"
    },
    {
      "bufferView": 2,
      "byteOffset": 384,
      "componentType": 5126,
      "count": 10572,
      "max": [
        10.921893119812012,
        10.791868209838867,
        0.13464899361133575
      ],
      "min": [
        -7.609830856323242,
        -8.48132038116455,
        -41.30279541015625
      ],
      "type": "VEC3"
    },
    {
      "bufferView": 2,
      "byteOffset": 127248,
      "componentType": 5126,
      "count": 10572,
      "max": [
        0.9999467730522156,
        0.9998946189880371,
        0.9999894499778748
      ],
      "min": [
        -0.9999593496322632,
        -0.9999611377716064,
        -0.9997348785400391
      ],
      "type": "VEC3"
    },
    {
      "bufferView": 3,
      "byteOffset": 256,
      "componentType": 5126,
      "count": 10572,
      "max": [
        0.999983012676239,
        0.9998547434806824,
        0.9159897565841675,
        1.0
      ],
      "min": [
        -0.9997146129608154,
        -0.9996451139450073,
        -0.9998828768730164,
        -1.0
      ],
      "type": "VEC4"
    },
    {
      "bufferView": 1,
      "byteOffset": 128,
      "componentType": 5126,
      "count": 10572,
      "max": [
        0.9955589771270752,
        0.9787070155143738
      ],
      "min": [
        0.0,
        0.0
      ],
      "type": "VEC2"
    },
    {
      "bufferView": 0,
      "byteOffset": 96,
      "componentType": 5125,
      "count": 61014,
      "type": "SCALAR"
    }
  ],
  "asset": {
    "extras": {
      "author": "ryegrady (https://sketchfab.com/ryegrady)",
      "license": "CC-BY-4.0 (http://creativecommons.org/licenses/by/4.0/)",
      "source": "https://sketchfab.com/3d-models/brocade-dress-f0738264e6df45ad9a18f0f155d3e974",
      "title": "Brocade Dress"
    },
    "generator": "Sketchfab-12.68.0",
    "version": "2.0"
  },
  "bufferViews": [
    {
      "buffer": 0,
      "byteLength": 244152,
      "name": "floatBufferViews",
      "target": 34963
    },
    {
      "buffer": 0,
      "byteLength": 84704,
      "byteOffset": 244152,
      "byteStride": 8,
      "name": "floatBufferViews",
      "target": 34962
    },
    {
      "buffer": 0,
      "byteLength": 254112,
      "byteOffset": 328856,
      "byteStride": 12,
      "name": "floatBufferViews",
      "target": 34962
    },
    {
      "buffer": 0,
      "byteLength": 169408,
      "byteOffset": 582968,
      "byteStride": 16,
      "name": "floatBufferViews",
      "target": 34962
    }
  ],
  "buffers": [
    {
      "byteLength": 752376,
      "uri": "scene.bin"
    }
  ],
  "images": [
    {
      "uri": "textures/material_0_baseColor.png"
    },
    {
      "uri": "textures/material_0_metallicRoughness.png"
    },
    {
      "uri": "textures/material_0_normal.png"
    }
  ],
  "materials": [
    {
      "doubleSided": true,
      "name": "material_0",
      "normalTexture": {
        "index": 2
      },
      "pbrMetallicRoughness": {
        "baseColorTexture": {
          "index": 0
        },
        "metallicRoughnessTexture": {
          "index": 1
        }
      }
    }
  ],
  "meshes": [
    {
      "name": "Object_0",
      "primitives": [
        {
          "attributes": {
            "NORMAL": 1,
            "POSITION": 0,
            "TANGENT": 2,
            "TEXCOORD_0": 3
          },
          "indices": 4,
          "material": 0,
          "mode": 4
        }
      ]
    },
    {
      "name": "Object_1",
      "primitives": [
        {
          "attributes": {
            "NORMAL": 6,
            "POSITION": 5,
            "TANGENT": 7,
            "TEXCOORD_0": 8
          },
          "indices": 9,
          "material": 0,
          "mode": 4
        }
      ]
    }
  ],
  "nodes": [
    {
      "children": [
        1
      ],
      "matrix": [
        1.0,
        -2.8327693431939985e-16,
        -2.8327693431939995e-16,
        0.0,
        2.832769343193999e-16,
        -6.123234262925839e-17,
        1.0,
        0.0,
        -2.832769343193999e-16,
        -1.0,
        -6.123234262925839e-17,
        0.0,
        -5.995204332975845e-15,
        -41.16812515258789,
        -2.3105287551879976,
        1.0
      ],
      "name": "Sketchfab_model"
    },
    {
      "children": [
        2,
        3
      ],
      "name": "dressbrocadetosubstance.obj.cleaner.materialmerger.gles"
    },
    {
      "mesh": 0,
      "name": "Object_2"
    },
    {
      "mesh": 1,
      "name": "Object_3"
    }
  ],
  "samplers": [
    {
      "magFilter": 9729,
      "minFilter": 9987,
      "wrapS": 10497,
      "wrapT": 10497
    }
  ],
  "scene": 0,
  "scenes": [
    {
      "name": "Sketchfab_Scene",
      "nodes": [
        0
      ]
    }
  ],
  "textures": [
    {
      "sampler": 0,
      "source": 0
    },
    {
      "sampler": 0,
      "source": 1
    },
    {
      "sampler": 0,
      "source": 2
    }
  ]
}
