{
  "accessors": [
    {
      "bufferView": 2,
      "componentType": 5126,
      "count": 2820,
      "max": [
        24.01869773864746,
        19.677112579345703,
        118.3919677734375
      ],
      "min": [
        -24.268966674804688,
        -18.261232376098633,
        81.64063262939453
      ],
      "type": "VEC3"
    },
    {
      "bufferView": 2,
      "byteOffset": 33840,
      "componentType": 5126,
      "count": 2820,
      "max": [
        0.9995788931846619,
        0.9996950030326843,
        0.8872647881507874
      ],
      "min": [
        -0.9997933506965637,
        -0.9999972581863403,
        -0.7869794964790344
      ],
      "type": "VEC3"
    },
    {
      "bufferView": 1,
      "componentType": 5126,
      "count": 2820,
      "max": [
        1.9949369430541992,
        1.6869670152664185
      ],
      "min": [
        -0.1890220046043396,
        -0.512706995010376
      ],
      "type": "VEC2"
    },
    {
      "bufferView": 0,
      "componentType": 5125,
      "count": 16146,
      "type": "SCALAR"
    },
    {
      "bufferView": 2,
      "byteOffset": 67680,
      "componentType": 5126,
      "count": 3353,
      "max": [
        27.26942253112793,
        22.474884033203125,
        122.9449234008789
      ],
      "min": [
        -27.511524200439453,
        -20.759721755981445,
        76.52545928955078
      ],
      "type": "VEC3"
    },
    {
      "bufferView": 2,
      "byteOffset": 107916,
      "componentType": 5126,
      "count": 3353,
      "max": [
        0.9996039867401123,
        0.9998899102210999,
        0.9996510148048401
      ],
      "min": [
        -0.9997353553771973,
        -0.9996695518493652,
        -0.9997566342353821
      ],
      "type": "VEC3"
    },
    {
      "bufferView": 1,
      "byteOffset": 22560,
      "componentType": 5126,
      "count": 3353,
      "max": [
        2200.0,
        50.0
      ],
      "min": [
        -2200.0,
        -10.0
      ],
      "type": "VEC2"
    },
    {
      "bufferView": 0,
      "byteOffset": 64584,
      "componentType": 5125,
      "count": 16911,
      "type": "SCALAR"
    },
    {
      "bufferView": 2,
      "byteOffset": 148152,
      "componentType": 5126,
      "count": 2893,
      "max": [
        14.986993789672852,
        10.310552597045898,
        159.7935333251953
      ],
      "min": [
        -53.5411376953125,
        -13.672348022460938,
        110.0926742553711
      ],
      "type": "VEC3"
    },
    {
      "bufferView": 2,
      "byteOffset": 182868,
      "componentType": 5126,
      "count": 2893,
      "max": [
        0.9992080926895142,
        0.9999862313270569,
        0.998899519443512
      ],
      "min": [
        -0.9990144968032837,
        -0.9999892115592957,
        -0.9996891021728516
      ],
      "type": "VEC3"
    },
    {
      "bufferView": 1,
      "byteOffset": 49384,
      "componentType": 5126,
      "count": 2893,
      "max": [
        299.7055969238281,
        336.605224609375
      ],
      "min": [
        -299.7055969238281,
        -439.64862060546875
      ],
      "type": "VEC2"
    },
    {
      "bufferView": 0,
      "byteOffset": 132228,
      "componentType": 5125,
      "count": 15306,
      "type": "SCALAR"
    }
  ],
  "asset": {
    "extras": {
      "author": "ZahraAmini (https://sketchfab.com/ZahraAmini)",
      "license": "CC-BY-4.0 (http://creativecommons.org/licenses/by/4.0/)",
      "source": "https://sketchfab.com/3d-models/casual-clothes-crop-top-and-skirt-ac4acd4d992844cca1257bc71041738c",
      "title": "Casual clothes (crop top and skirt)"
    },
    "generator": "Sketchfab-12.56.0",
    "version": "2.0"
  },
  "bufferViews": [
    {
      "buffer": 0,
      "byteLength": 193452,
      "name": "floatBufferViews",
      "target": 34963
    },
    {
      "buffer": 0,
      "byteLength": 72528,
      "byteOffset": 193452,
      "byteStride": 8,
      "name": "floatBufferViews",
      "target": 34962
    },
    {
      "buffer": 0,
      "byteLength": 217584,
      "byteOffset": 265980,
      "byteStride": 12,
      "name": "floatBufferViews",
      "target": 34962
    }
  ],
  "buffers": [
    {
      "byteLength": 483564,
      "uri": "scene.bin"
    }
  ],
  "images": [
    {
      "uri": "textures/FABRIC_3_FRONT_3403757_baseColor.jpeg"
    }
  ],
  "materials": [
    {
      "doubleSided": true,
      "name": "FABRIC_3_FRONT_3403757",
      "pbrMetallicRoughness": {
        "baseColorTexture": {
          "index": 0
        },
        "metallicFactor": 0.09291264615216242,
        "roughnessFactor": 0.6
      }
    },
    {
      "doubleSided": true,
      "name": "FABRIC_6_FRONT_3403936",
      "pbrMetallicRoughness": {
        "baseColorFactor": [
          0.0,
          0.0,
          0.0,
          1.0
        ],
        "metallicFactor": 0.0,
        "roughnessFactor": 0.6
      }
    },
    {
      "doubleSided": true,
      "name": "FABRIC_7_FRONT_3403962",
      "pbrMetallicRoughness": {
        "baseColorFactor": [
          0.10829235995947611,
          0.0995212461143963,
          0.0995212461143963,
          1.0
        ],
        "metallicFactor": 0.0,
        "roughnessFactor": 0.6
      }
    }
  ],
  "meshes": [
    {
      "name": "Object_0",
      "primitives": [
        {
          "attributes": {
            "NORMAL": 1,
            "POSITION": 0,
            "TEXCOORD_0": 2
          },
          "indices": 3,
          "material": 0,
          "mode": 4
        }
      ]
    },
    {
      "name": "Object_1",
      "primitives": [
        {
          "attributes": {
            "NORMAL": 5,
            "POSITION": 4,
            "TEXCOORD_0": 6
          },
          "indices": 7,
          "material": 1,
          "mode": 4
        }
      ]
    },
    {
      "name": "Object_2",
      "primitives": [
        {
          "attributes": {
            "NORMAL": 9,
            "POSITION": 8,
            "TEXCOORD_0": 10
          },
          "indices": 11,
          "material": 2,
          "mode": 4
        }
      ]
    }
  ],
  "nodes": [
    {
      "children": [
        1
      ],
      "matrix": [
        1.0,
        0.0,
        0.0,
        0.0,
        0.0,
        2.220446049250313e-16,
        -1.0,
        0.0,
        0.0,
        1.0,
        2.220446049250313e-16,
        0.0,
        0.0,
        0.0,
        0.0,
        1.0
      ],
      "name": "Sketchfab_model"
    },
    {
      "children": [
        2,
        3,
        4
      ],
      "name": "Casual clothes.obj.cleaner.materialmerger.gles"
    },
    {
      "mesh": 0,
      "name": "Object_2"
    },
    {
      "mesh": 1,
      "name": "Object_3"
    },
    {
      "mesh": 2,
      "name": "Object_4"
    }
  ],
  "samplers": [
    {
      "magFilter": 9729,
      "minFilter": 9987,
      "wrapS": 10497,
      "wrapT": 10497
    }
  ],
  "scene": 0,
  "scenes": [
    {
      "name": "Sketchfab_Scene",
      "nodes": [
        0
      ]
    }
  ],
  "textures": [
    {
      "sampler": 0,
      "source": 0
    }
  ]
}
